<!--?xml version="1.0" encoding="utf-8"?-->
<!-- Generator: Adobe Illustrator 18.1.1, SVG Export Plug-In . SVG Version: 6.00 Build 0)  -->

<svg version="1.1" id="_x32_" xmlns="http://www.w3.org/2000/svg" xmlns:xlink="http://www.w3.org/1999/xlink" x="0px" y="0px" viewBox="0 0 512 512" style="width: 256px; height: 256px; opacity: 1;" xml:space="preserve">

<g>
	<path class="st0" d="M486.748,422.355c-38.012-59.548-44.621-122.222-55.904-209.664c-13.387-103.748-63.9-160.324-141.698-172.368
		c0.412-2.123,0.645-4.299,0.645-6.537C289.79,15.134,274.657,0,255.996,0c-18.653,0-33.786,15.134-33.786,33.786
		c0,2.238,0.233,4.414,0.645,6.537c-77.798,12.043-128.311,68.62-141.707,172.368c-11.282,87.442-17.883,150.116-55.895,209.664
		c-13.638,21.366-5.068,25.297,20.274,25.297h420.949C491.817,447.652,500.386,443.721,486.748,422.355z M211.599,126.412
		c-9.116,4.406-16.727,10.066-23.39,17.328c-8.292,9.044-15.205,20.872-20.453,35.836c-5.247,14.946-8.775,32.971-10.28,53.924
		c-0.617,8.534-8.032,14.954-16.557,14.336c-8.534-0.618-14.954-8.032-14.336-16.556c1.665-23.113,5.579-43.788,11.945-61.949
		c6.367-18.16,15.241-33.858,26.846-46.519c9.25-10.11,20.273-18.286,32.783-24.303c7.71-3.716,16.96-0.475,20.676,7.235
		C222.541,113.447,219.308,122.705,211.599,126.412z" ></path>
	<path class="st0" d="M255.996,512c27.813,0,52.08-15.134,65.055-37.601H190.949C203.925,496.866,228.192,512,255.996,512z" ></path>
</g>
</svg>
